#!OML:ASF H:\Dans Jumps\Project 1\Capture day 1\Session 1\subject.ASF
:FULLY-SPECIFIED
:DEGREES
327
root 0.469867 14.1707 -15.6686 36.2126 -0.88235 -2.90617
lowerback 30.4522 0.686785 -1.2069
upperback 6.13361 0.789593 2.61254
thorax -9.87049 0.418549 3.37685
lowerneck -18.6652 1.05169 -1.31507
upperneck -7.59415 1.63676 -2.60364
head 0.685808 0.798827 -0.505279
rclavicle 7.65321e-015 -1.12065e-014
rhumerus -34.0277 -17.2917 -70.0507
rradius 22.7879
rwrist 32.0927
rhand -18.2131 -23.7106
rfingers 7.12502
rthumb 8.06463 -53.5368
lclavicle 7.65321e-015 -1.12065e-014
lhumerus -32.8898 9.2348 76.6312
lradius 13.0425
lwrist -0.0108906
lhand -28.5557 -7.61658
lfingers 7.12502
lthumb -1.92258 22.3545
rfemur -86.1627 0.573615 22.4685
rtibia 81.2836
rfoot -31.1509 -13.114
rtoes -1.03746
lfemur -86.5219 4.47773 -20.197
ltibia 81.3023
lfoot -26.7626 18.8029
ltoes -15.0599
328
root 0.462557 14.1636 -15.619 36.5147 -0.839915 -2.84064
lowerback 30.6036 0.711859 -1.24813
upperback 5.90991 0.814987 2.62633
thorax -10.2047 0.439247 3.41172
lowerneck -18.816 1.0126 -1.34108
upperneck -7.52401 1.59461 -2.59575
head 0.733251 0.776011 -0.50019
rclavicle 4.22417e-015 -4.22417e-016
rhumerus -33.8482 -17.6141 -70.0148
rradius 22.5141
rwrist 32.1676
rhand -18.3485 -23.9173
rfingers 7.12502
rthumb 7.93395 -53.7484
lclavicle 4.22417e-015 -4.22417e-016
lhumerus -32.5936 10.2106 76.2251
lradius 12.4752
lwrist -1.26403
lhand -28.4698 -7.64498
lfingers 7.12502
lthumb -1.83963 22.3268
rfemur -86.3354 0.717119 22.3059
rtibia 81.4651
rfoot -31.4361 -13.4039
rtoes -0.706401
lfemur -86.665 4.26028 -20.0832
ltibia 81.4309
lfoot -26.9256 19.0752
ltoes -14.6081
329
root 0.455082 14.1575 -15.5664 36.8191 -0.794385 -2.76699
lowerback 30.7447 0.735271 -1.28508
upperback 5.67921 0.839224 2.63648
thorax -10.543 0.459641 3.44042
lowerneck -18.9801 0.968861 -1.36718
upperneck -7.44114 1.54698 -2.58663
head 0.787212 0.750152 -0.495019
rclavicle 3.45388e-015 1.4151e-014
rhumerus -33.6013 -17.9737 -70.0099
rradius 22.226
rwrist 32.271
rhand -18.4986 -24.0911
rfingers 7.12502
rthumb 7.78911 -53.9276
lclavicle 3.45388e-015 1.4151e-014
lhumerus -32.2242 11.4369 75.7143
lradius 11.8499
lwrist -2.81788
lhand -28.3131 -7.67741
lfingers 7.12502
lthumb -1.68828 22.2957
rfemur -86.4902 0.853278 22.1408
rtibia 81.641
rfoot -31.7249 -13.7024
rtoes -0.355115
lfemur -86.7871 4.03593 -19.9736
ltibia 81.547
lfoot -27.1045 19.3345
ltoes -14.173
330
root 0.447173 14.1526 -15.5108 37.1258 -0.740502 -2.68221
lowerback 31.0334 0.755966 -1.30573
upperback 5.05044 0.863698 2.76415
thorax -10.6463 0.450474 3.33049
lowerneck -19.1609 0.920293 -1.39129
upperneck -7.34843 1.49328 -2.57364
head 0.847352 0.720989 -0.489346
rclavicle 7.26806e-016 -3.25448e-014
rhumerus -33.2692 -18.3738 -70.0444
rradius 21.9235
rwrist 32.4331
rhand -18.637 -24.1946
rfingers 7.12502
rthumb 7.65548 -54.036
lclavicle 7.26806e-016 -3.25448e-014
lhumerus -31.7836 12.9955 75.0601
lradius 11.1727
lwrist -4.78245
lhand -28.0605 -7.71637
lfingers 7.12502
lthumb -1.4443 22.2585
rfemur -86.626 0.974251 21.9774
rtibia 81.8098
rfoot -32.0208 -14.0096
rtoes 0.0202837
lfemur -86.888 3.80806 -19.8747
ltibia 81.6475
lfoot -27.2872 19.5912
ltoes -13.7843
331
root 0.438844 14.1484 -15.4515 37.4312 -0.684466 -2.58551
lowerback 31.1225 0.773964 -1.33536
upperback 4.81139 0.882539 2.76487
thorax -10.9519 0.466944 3.34222
lowerneck -19.3743 0.859479 -1.43711
upperneck -7.22846 1.42939 -2.52924
head 0.921617 0.687346 -0.470524
rclavicle -3.11843e-015 -3.6154e-015
rhumerus -32.839 -18.8021 -70.127
rradius 21.6147
rwrist 32.6752
rhand -18.7509 -24.2201
rfingers 7.12502
rthumb 7.54563 -54.0655
lclavicle -3.11843e-015 -3.6154e-015
lhumerus -31.2898 14.9229 74.2555
lradius 10.4714
lwrist -7.21228
lhand -27.7126 -7.75243
lfingers 7.12502
lthumb -1.10837 22.2244
rfemur -86.7405 1.07785 21.8176
rtibia 81.9716
rfoot -32.3125 -14.336
rtoes 0.352836
lfemur -86.9641 3.58419 -19.7934
ltibia 81.735
lfoot -27.4757 19.8396
ltoes -13.4471
332
root 0.430127 14.1457 -15.388 37.7151 -0.627147 -2.48113
lowerback 31.1971 0.791631 -1.36293
upperback 4.58379 0.900793 2.76133
thorax -11.2394 0.482808 3.34843
lowerneck -19.6163 0.792354 -1.49287
upperneck -7.09778 1.36034 -2.47229
head 1.00431 0.651343 -0.446324
rclavicle -1.11319e-014 1.7344e-014
rhumerus -32.2902 -19.2531 -70.2638
rradius 21.3075
rwrist 33.0054
rhand -18.811 -24.1629
rfingers 7.12502
rthumb 7.48755 -54.0104
lclavicle -1.11319e-014 1.7344e-014
lhumerus -30.448 15.4715 74.4023
lradius 9.76093
lwrist -8.09692
lhand -27.4959 -7.56092
lfingers 7.12502
lthumb -0.899062 22.4169
rfemur -86.804 1.16258 21.6676
rtibia 82.1204
rfoot -32.6041 -14.6766
rtoes 0.638489
lfemur -86.9893 3.37555 -19.7323
ltibia 81.8077
lfoot -27.6756 20.0694
ltoes -13.1561
333
root 0.42129 14.1434 -15.32 37.9829 -0.578747 -2.37443
lowerback 31.2407 0.813613 -1.39263
upperback 4.36884 0.923017 2.75425
thorax -11.5007 0.500165 3.35048
lowerneck -19.8778 0.719114 -1.56291
upperneck -6.96366 1.28697 -2.40292
head 1.09154 0.613729 -0.416026
rclavicle -3.8266e-015 -8.02593e-015
rhumerus -31.6149 -19.7071 -70.4631
rradius 21.0155
rwrist 33.4058
rhand -18.8198 -24.0397
rfingers 7.12502
rthumb 7.47913 -53.8875
lclavicle -3.8266e-015 -8.02593e-015
lhumerus -29.4797 16.0243 74.6128
lradius 9.06465
lwrist -9.04171
lhand -27.2677 -7.35783
lfingers 7.12502
lthumb -0.678629 22.6208
rfemur -86.8288 1.23231 21.53
rtibia 82.2585
rfoot -32.8864 -15.028
rtoes 0.848691
lfemur -86.9767 3.19163 -19.6937
ltibia 81.8735
lfoot -27.8845 20.2836
ltoes -12.9097
334
root 0.412288 14.1425 -15.2474 38.2144 -0.548876 -2.27396
lowerback 31.2664 0.845265 -1.43542
upperback 4.17392 0.952767 2.74852
thorax -11.7334 0.520905 3.35805
lowerneck -20.1481 0.65125 -1.62586
upperneck -6.84337 1.21949 -2.35339
head 1.17622 0.578612 -0.393034
rclavicle -2.08724e-015 2.31087e-015
rhumerus -30.8005 -20.1398 -70.7362
rradius 20.7532
rwrist 33.8333
rhand -18.8154 -23.8805
rfingers 7.12502
rthumb 7.48338 -53.7281
lclavicle -2.08724e-015 2.31087e-015
lhumerus -28.3953 16.5965 74.8779
lradius 8.40835
lwrist -10.032
lhand -27.0496 -7.14893
lfingers 7.12502
lthumb -0.468035 22.8303
rfemur -86.7845 1.29787 21.4066
rtibia 82.3791
rfoot -33.1611 -15.3775
rtoes 1.00757
lfemur -86.8976 3.04942 -19.6776
ltibia 81.9305
lfoot -28.1102 20.4833
ltoes -12.6996
335
root 0.403621 14.142 -15.1697 38.4089 -0.53731 -2.18889
lowerback 31.2646 0.88562 -1.48343
upperback 3.99964 0.991783 2.74667
thorax -11.9327 0.545507 3.36896
lowerneck -20.4024 0.593519 -1.66991
upperneck -6.7552 1.16064 -2.33978
head 1.24811 0.547024 -0.384493
rclavicle 7.7526e-015 -1.32689e-014
rhumerus -29.8427 -20.5271 -71.0904
rradius 20.5263
rwrist 34.2412
rhand -18.8413 -23.7239
rfingers 7.12502
rthumb 7.45834 -53.5724
lclavicle 7.7526e-015 -1.32689e-014
lhumerus -27.2061 17.1852 75.2025
lradius 7.81518
lwrist -11.0224
lhand -26.8844 -6.95137
lfingers 7.12502
lthumb -0.308461 23.0282
rfemur -86.67 1.36256 21.3021
rtibia 82.4861
rfoot -33.4388 -15.7048
rtoes 1.1531
lfemur -86.7563 2.94981 -19.6764
ltibia 81.9872
lfoot -28.3481 20.6817
ltoes -12.5396
